<?xml version="1.0" standalone="no"?><!DOCTYPE svg PUBLIC "-//W3C//DTD SVG 1.1//EN" "http://www.w3.org/Graphics/SVG/1.1/DTD/svg11.dtd"><svg t="1730452890745" class="icon" viewBox="0 0 1024 1024" version="1.1" xmlns="http://www.w3.org/2000/svg" p-id="11473" xmlns:xlink="http://www.w3.org/1999/xlink" width="200" height="200"><path d="M859.178598 110.382674H164.821402a154.73644 154.73644 0 0 0-154.535744 154.686266v493.661424A154.73644 154.73644 0 0 0 164.821402 913.16576h694.357196a154.73644 154.73644 0 0 0 154.585918-154.535744V265.06894A154.73644 154.73644 0 0 0 859.178598 110.382674zM90.563967 391.055711V265.06894A74.357783 74.357783 0 0 1 164.821402 190.660983h694.357196a74.357783 74.357783 0 0 1 74.307609 74.307609v126.087119zM164.821402 832.887452a74.357783 74.357783 0 0 1-74.257435-74.257436V471.334019h842.92224v287.396345A74.357783 74.357783 0 0 1 859.178598 832.887452z" fill="#999999" p-id="11474"></path><path d="M196.882552 250.869714a40.139154 40.139154 0 1 0 40.139154 40.139155 40.139154 40.139154 0 0 0-40.139154-40.139155zM311.429663 250.869714a40.139154 40.139154 0 1 0 40.139155 40.139155 40.139154 40.139154 0 0 0-40.139155-40.139155zM425.976775 250.869714a40.139154 40.139154 0 1 0 40.139154 40.139155 40.139154 40.139154 0 0 0-40.139154-40.139155z" fill="#999999" p-id="11475"></path></svg>